# xmcd
#
# Track frame offsets: 
#        150
#        16185
#        33654
#        48372
#        68093
#        84075
#        105138
#        128539
#        149682
#
# Disc length: 2288 seconds
#
# Revision: 1
# Processed by: cddbd v1.5.1PL0 Copyright (c) Steve Scherf et al.
# Submitted via: ExactAudioCopy v0.95a5
#
DISCID=6708ee09
DTITLE=Bud Powell - Piano Interpretations
DYEAR=1999
DGENRE=Jazz
TTITLE0=Conception
TTITLE1=East Of The Sun (And West Of The Moon)
TTITLE2=Heart And Soul
TTITLE3=Willow Grove
TTITLE4=Crazy Rhythm
TTITLE5=Willow Weep For Me
TTITLE6=Bean And The Boys
TTITLE7=Lady Bird
TTITLE8=Stairway To The Stars
EXTD=
EXTT0=
EXTT1=
EXTT2=
EXTT3=
EXTT4=
EXTT5=
EXTT6=
EXTT7=
EXTT8=
PLAYORDER=
